<svg xmlns="http://www.w3.org/2000/svg" width="35" height="30" viewBox="0 0 35 30"><g><g><path fill="#faefe9" d="M29.168 7.962v5.23h-2.165v-5.23h-5.41V5.823h5.41V.593h2.165v5.23h5.41v2.139zM14.2 2.665c1.92 1.053 3.046 2.762 3.046 4.997 0 1.878-1.17 3.357-2.68 4.505-1.474 1.12-1.754 1.59-1.754 2.542 0 .811 1.579 2.195 2.404 2.763 2.413 1.66 3.126 3.2 3.126 5.772 0 3.21-3.126 6.793-8.908 6.793-5.073 0-9.488-2.403-9.488-5.61 0-3.259 4.04-6.404 9.112-6.404.552 0 1.059-.021 1.583-.021-.695-.657-1.243-1.474-1.243-2.467 0-.588.193-1.18.463-1.684-.276.02-.557-.025-.847-.025-4.166 0-6.957-2.981-6.957-6.553 0-3.495 3.854-6.713 7.95-6.713h9.133l-2.044 2.105zm-4.176 16.19c-3.506-.036-6.647 2.08-6.647 4.62 0 2.593 2.532 4.488 6.038 4.488 4.928 0 6.647-1.763 6.647-4.355 0-.312-.04-.619-.113-.917-.385-1.467-1.75-2.193-3.653-3.48a7.812 7.812 0 0 0-2.272-.356zm3.939-11.153c-.407-3.004-2.745-5.417-5.099-5.485-2.352-.068-3.93 2.232-3.523 5.237.406 3.006 2.642 5.5 4.995 5.567 2.352.069 4.032-2.312 3.627-5.319z"/></g></g></svg>