<svg xmlns="http://www.w3.org/2000/svg" width="37" height="30" viewBox="0 0 37 30"><g><g><path fill="#faefe9" d="M24.954.565c2.928-.051 4.486 1 5.975 2.337 1.263-.106 2.905-.802 3.872-1.286l.94-.508C35.19 2.58 34.44 3.732 33.29 4.606c-.256.194-.51.457-.83.58v.018c1.64-.017 2.993-.746 4.278-1.142v.019c-.675 1.057-1.588 2.13-2.563 2.9l-1.18.923c.021 1.712-.026 3.346-.35 4.785-1.888 8.363-6.89 14.04-14.808 16.472-2.843.874-7.437 1.233-10.694.435-1.616-.395-3.075-.841-4.444-1.431a17.845 17.845 0 0 1-2.14-1.087c-.22-.134-.442-.267-.663-.4.735.022 1.594.222 2.415.092.744-.119 1.472-.088 2.158-.236 1.71-.37 3.228-.86 4.536-1.613.634-.366 1.596-.795 2.047-1.323-.85.015-1.62-.18-2.25-.399-2.445-.85-3.868-2.415-4.794-4.766.74.08 2.875.27 3.374-.145-.933-.05-1.83-.583-2.47-.978-1.967-1.214-3.572-3.248-3.56-6.38l.775.363c.494.205.996.315 1.586.435.249.05.747.195 1.032.09h-.037c-.38-.436-1-.727-1.382-1.195C2.063 9.076.88 6.697 1.628 3.863c.19-.719.49-1.354.811-1.939l.037.018c.147.303.475.526.683.78.644.787 1.44 1.495 2.25 2.12 2.76 2.127 5.245 3.435 9.237 4.403 1.013.246 2.184.433 3.393.435-.34-.975-.23-2.553.037-3.497.673-2.374 2.134-4.085 4.278-5.002a9.28 9.28 0 0 1 1.678-.508l.922-.108z"/></g></g></svg>