<svg xmlns="http://www.w3.org/2000/svg" width="188" height="195" viewBox="0 0 188 195"><g><g opacity=".2"><path fill="#040405" d="M184.243 117.404a3.6 3.6 0 0 1-3.6-3.602c0-.96-.045-1.896-.073-2.84-1.466-2.993-8.084-14.34-24.013-14.34-17.965 0-24.098 14.452-24.351 15.067a3.613 3.613 0 0 1-3.062 2.233 3.615 3.615 0 0 1-3.36-1.731c-.38-.625-9.76-15.57-31.52-15.57-21.933 0-31.427 15.414-31.522 15.57-.703 1.173-1.965 1.871-3.374 1.736a3.6 3.6 0 0 1-3.054-2.252c-.247-.601-6.38-15.054-24.344-15.054-15.908 0-22.53 11.32-24.014 14.339-.028.946-.073 1.881-.073 2.842a3.6 3.6 0 1 1-7.199 0c0-1.027.042-2.038.074-3.055a3.448 3.448 0 0 1 .021-.873C2.73 61.574 40.472 25.35 90.664 23.69V3.867a3.6 3.6 0 1 1 7.198 0V23.69c50.192 1.66 87.934 37.885 89.885 86.184.039.302.057.59.021.885.032 1.012.074 2.02.074 3.044a3.6 3.6 0 0 1-3.599 3.602zm-89.98-86.592c-37.482 0-77.042 23.32-84.94 66.863 4.886-4.333 12.17-8.258 22.647-8.258 15.574 0 24.157 8.66 28.164 14.47 5.156-5.65 16.098-14.47 34.13-14.47 18.03 0 28.972 8.82 34.128 14.47 4.007-5.81 12.59-14.47 28.165-14.47 10.477 0 17.76 3.925 22.646 8.258-7.898-43.543-47.457-66.863-84.94-66.863zm-43.19 127.946a3.6 3.6 0 0 1 3.6 3.602v7.205c0 11.824 9.053 18.01 17.995 18.01s17.996-6.186 17.996-18.01v-61.236a3.6 3.6 0 1 1 7.198 0v61.236c0 16.378-12.98 25.215-25.194 25.215-12.214 0-25.194-8.837-25.194-25.215v-7.205a3.6 3.6 0 0 1 3.599-3.602z"/></g></g></svg>