<svg xmlns="http://www.w3.org/2000/svg" width="19" height="16" viewBox="0 0 19 16"><g><g><path fill="#000000" d="M15.605 3.84v2.746H14.5V3.841h-2.763V2.718H14.5V-.028h1.105v2.746h2.763V3.84zM7.963 1.06c.98.553 1.555 1.45 1.555 2.623 0 .986-.598 1.763-1.369 2.366-.752.587-.895.834-.895 1.334 0 .426.806 1.152 1.228 1.45 1.232.872 1.596 1.68 1.596 3.03 0 1.686-1.596 3.568-4.55 3.568-2.59 0-4.844-1.262-4.844-2.946 0-1.711 2.063-3.362 4.653-3.362.282 0 .54-.011.808-.011-.354-.345-.634-.774-.634-1.295 0-.31.098-.62.236-.884-.14.01-.284-.013-.432-.013-2.128 0-3.553-1.566-3.553-3.441 0-1.835 1.968-3.524 4.06-3.524h4.663L9.442 1.06zM5.83 9.56c-1.79-.02-3.394 1.091-3.394 2.425 0 1.361 1.293 2.356 3.083 2.356 2.517 0 3.394-.925 3.394-2.286 0-.164-.02-.325-.057-.482-.197-.77-.894-1.151-1.866-1.827a3.884 3.884 0 0 0-1.16-.186zm2.011-5.856C7.634 2.127 6.44.861 5.238.824c-1.201-.035-2.007 1.172-1.8 2.75.208 1.578 1.35 2.887 2.552 2.923 1.2.036 2.059-1.214 1.851-2.793z"/></g></g></svg>