<svg xmlns="http://www.w3.org/2000/svg" width="10" height="16" viewBox="0 0 10 16"><g><g><path fill="#000000" d="M9.843 14.585c-.651.31-1.242.529-1.77.655a7.4 7.4 0 0 1-1.715.188c-.698 0-1.109-.089-1.645-.266a3.998 3.998 0 0 1-1.37-.764c-.38-.331-.642-.684-.789-1.056-.146-.372-.219-.912-.219-1.62V6.297H.263v-2.19c.599-.198 1.294-.481 1.72-.85.429-.369.771-.811 1.03-1.328.259-.516.437-1.173.534-1.972h2.17v3.58h3.527v2.76H5.717v3.967c0 .898-.012 1.415.082 1.668.093.254.327.517.582.669.337.205.722.308 1.157.308.773 0 1.54-.256 2.305-.764z"/></g></g></svg>