<svg xmlns="http://www.w3.org/2000/svg" width="15" height="12" viewBox="0 0 15 12"><g><g><path fill="#000000" d="M9.918-.042c1.172-.02 1.795.4 2.39.936.506-.043 1.162-.321 1.55-.515l.375-.203c-.22.588-.52 1.05-.98 1.399-.103.078-.204.183-.333.232v.007c.656-.007 1.198-.298 1.712-.456v.007c-.27.423-.636.852-1.026 1.16l-.472.37c.009.684-.01 1.338-.14 1.913-.755 3.346-2.756 5.616-5.923 6.59-1.137.349-2.975.492-4.278.173A11.148 11.148 0 0 1 1.016 11a7.149 7.149 0 0 1-.856-.435l-.265-.16c.294.009.637.089.966.036.297-.047.589-.035.863-.094.684-.148 1.291-.343 1.814-.645.254-.146.639-.318.82-.529a2.607 2.607 0 0 1-.9-.16c-.979-.34-1.548-.966-1.918-1.906.296.032 1.15.108 1.35-.058-.374-.02-.733-.233-.989-.392C1.114 6.171.473 5.357.477 4.106c.104.047.207.096.31.144.198.082.399.126.635.174.1.02.298.078.413.036H1.82c-.152-.175-.4-.29-.553-.478-.505-.619-.978-1.57-.679-2.704A3.43 3.43 0 0 1 .913.502L.927.51c.059.122.19.21.273.312.258.315.576.598.9.848 1.104.852 2.098 1.375 3.695 1.762.405.098.874.173 1.357.174-.135-.39-.092-1.022.015-1.4.27-.949.854-1.633 1.712-2 .205-.088.432-.151.67-.203l.37-.044z"/></g></g></svg>