<svg xmlns="http://www.w3.org/2000/svg" width="36" height="39" viewBox="0 0 36 39"><g><g><path fill="#fefefe" d="M34.966 17.268c-1.678 8.79-5.61 13.006-2.999 18.228.638.915.88 1.761.534 2.47-.389.797-1.37 1.123-2.705 1.123-3.926 0-10.923-2.818-14.99-4.787a.723.723 0 0 1-.335-.968c.175-.36.61-.51.971-.335 9.35 4.527 15.31 5.237 15.751 4.334.441-.905-3.8-5.135-13.15-9.663-3.116-1.51-6.202-2.746-8.922-3.576a.724.724 0 1 1 .426-1.386c2.791.853 5.95 2.118 9.132 3.66 3.23 1.564 8.022 4.245 11.073 6.823-.472-2.74.47-5.287 1.572-8.456.765-2.2 1.632-4.693 2.214-7.738 1.656-8.686-3.648-11.083-3.875-11.181l-.06-.026-.068-.035c-.01-.006-1.65-.856-3.963-.856-3.072 0-5.873 1.443-8.324 4.29-1.918 2.227-3.341 4.349-4.597 6.22-2.253 3.359-4.126 6.145-7.425 7.246a.72.72 0 0 1-.723.417c-1.63-.16-2.148.137-2.21.265-.094.193.164 1.182 2.503 3.136a.722.722 0 0 1 .09 1.02.727.727 0 0 1-1.025.09c-2.513-2.1-3.454-3.696-2.876-4.88.353-.722 1.179-1.089 2.491-1.118 5.538-.889 6.828-6.556 12.669-13.34 3.294-3.825 6.758-4.794 9.427-4.794.585 0 1.129.048 1.627.121.075-1.045.615-2.025 1.463-2.591.597-.398 1.864-.93 3.641-.028.903.459 1.533 1.388 1.644 2.425.116 1.081-.34 2.151-1.244 2.98 1.66 1.82 3.358 5.171 2.263 10.91zM31.643 2.244c-.839-.426-1.59-.447-2.172-.06-.533.356-.842 1.015-.82 1.699.99.282 1.578.599 1.578.599s.61.252 1.408.88c.623-.531.934-1.177.864-1.83-.06-.556-.388-1.05-.858-1.288zM8.578 27.715c.724 0 1.404.181 2.002.497l1.089-1.393a.73.73 0 0 1 1.02-.126.722.722 0 0 1 .127 1.016l-1.087 1.392c.7.76 1.132 1.77 1.132 2.88 0 2.352-1.921 4.266-4.283 4.266-2.36 0-4.281-1.914-4.281-4.266 0-2.352 1.92-4.266 4.281-4.266zm0 7.084a2.826 2.826 0 0 0 2.829-2.818 2.826 2.826 0 0 0-2.829-2.818 2.826 2.826 0 0 0-2.827 2.818 2.826 2.826 0 0 0 2.827 2.818z"/></g></g></svg>