<svg xmlns="http://www.w3.org/2000/svg" width="36" height="28" viewBox="0 0 36 28"><g><g><path fill="#fefefe" d="M32.19 27.497H3.676c-1.787 0-3.24-1.466-3.24-3.267V3.317C.435 1.516 1.888.05 3.675.05H32.19c1.787 0 3.24 1.467 3.24 3.268V24.23c0 1.801-1.453 3.267-3.24 3.267zm1.945-24.18c0-1.08-.873-1.96-1.945-1.96H3.676c-1.072 0-1.945.88-1.945 1.96V24.23c0 1.081.873 1.96 1.945 1.96H32.19c1.072 0 1.945-.879 1.945-1.96zM20.318 14.52c-.657.572-1.521.86-2.385.86-.864 0-1.728-.287-2.385-.86L3.252 3.812a.657.657 0 0 1-.067-.922.644.644 0 0 1 .914-.067L16.395 13.53c.834.726 2.242.726 3.076 0L31.767 2.823a.644.644 0 0 1 .914.067.657.657 0 0 1-.067.922z"/></g></g></svg>